<svg xmlns="http://www.w3.org/2000/svg" viewBox="0 0 600 600" role="img" aria-label="Corazones de Azucar">
  <rect width="600" height="600" fill="#fff1f7"/>
  <g fill="#ff6fa8">
    <path d="M180 240c0-39 31-70 70-70 28 0 50 14 65 35 15-21 37-35 65-35 39 0 70 31 70 70 0 85-135 173-135 173S180 325 180 240z"/>
  </g>
  <g fill="#ffc2d9" opacity="0.72">
    <path d="M112 380c0-24 19-43 43-43 17 0 31 9 40 21 9-12 23-21 40-21 24 0 43 19 43 43 0 52-83 106-83 106S112 432 112 380z"/>
    <path d="M348 404c0-20 16-36 36-36 14 0 26 7 33 18 8-11 20-18 34-18 20 0 36 16 36 36 0 44-70 90-70 90S348 448 348 404z"/>
  </g>
</svg>
